<mxfile host="app.diagrams.net" agent="Mozilla/5.0 (Windows NT 10.0; Win64; x64) AppleWebKit/537.36 (KHTML, like Gecko) Chrome/133.0.0.0 Safari/537.36 OPR/118.0.0.0" version="27.0.5">
  <diagram name="Página-1" id="PUT1A87Pse3DX7PEec4C">
    <mxGraphModel dx="1732" dy="836" grid="1" gridSize="10" guides="1" tooltips="1" connect="1" arrows="1" fold="1" page="1" pageScale="1" pageWidth="827" pageHeight="1169" math="0" shadow="0">
      <root>
        <mxCell id="0" />
        <mxCell id="1" parent="0" />
        <mxCell id="D2_aMS_M9CUxwM_j2zAy-57" value="" style="rounded=0;whiteSpace=wrap;html=1;labelPosition=center;verticalLabelPosition=bottom;align=center;verticalAlign=top;" vertex="1" parent="1">
          <mxGeometry x="560" y="207.5" width="180" height="332.5" as="geometry" />
        </mxCell>
        <mxCell id="D2_aMS_M9CUxwM_j2zAy-1" value="instakilltres.github.io" style="swimlane;whiteSpace=wrap;html=1;startSize=23;" vertex="1" parent="1">
          <mxGeometry x="40" y="120" width="460" height="800" as="geometry" />
        </mxCell>
        <mxCell id="D2_aMS_M9CUxwM_j2zAy-14" value="INSTAKILL 3" style="text;html=1;align=center;verticalAlign=middle;whiteSpace=wrap;rounded=0;fontSize=21;" vertex="1" parent="D2_aMS_M9CUxwM_j2zAy-1">
          <mxGeometry x="170" y="50" width="60" height="30" as="geometry" />
        </mxCell>
        <mxCell id="D2_aMS_M9CUxwM_j2zAy-6" value="" style="verticalLabelPosition=bottom;verticalAlign=top;html=1;shape=mxgraph.basic.patternFillRect;fillStyle=diag;step=5;fillStrokeWidth=0.2;fillStrokeColor=#dddddd;" vertex="1" parent="D2_aMS_M9CUxwM_j2zAy-1">
          <mxGeometry x="389" y="40" width="40" height="10" as="geometry" />
        </mxCell>
        <mxCell id="D2_aMS_M9CUxwM_j2zAy-10" value="" style="verticalLabelPosition=bottom;verticalAlign=top;html=1;shape=mxgraph.basic.patternFillRect;fillStyle=diag;step=5;fillStrokeWidth=0.2;fillStrokeColor=#dddddd;" vertex="1" parent="D2_aMS_M9CUxwM_j2zAy-1">
          <mxGeometry x="389" y="50" width="40" height="10" as="geometry" />
        </mxCell>
        <mxCell id="D2_aMS_M9CUxwM_j2zAy-11" value="" style="verticalLabelPosition=bottom;verticalAlign=top;html=1;shape=mxgraph.basic.patternFillRect;fillStyle=diag;step=5;fillStrokeWidth=0.2;fillStrokeColor=#dddddd;" vertex="1" parent="D2_aMS_M9CUxwM_j2zAy-1">
          <mxGeometry x="389" y="50" width="40" as="geometry" />
        </mxCell>
        <mxCell id="D2_aMS_M9CUxwM_j2zAy-13" value="" style="verticalLabelPosition=bottom;verticalAlign=top;html=1;shape=mxgraph.basic.patternFillRect;fillStyle=diag;step=5;fillStrokeWidth=0.2;fillStrokeColor=#dddddd;" vertex="1" parent="D2_aMS_M9CUxwM_j2zAy-1">
          <mxGeometry x="389" y="60" width="40" height="10" as="geometry" />
        </mxCell>
        <mxCell id="D2_aMS_M9CUxwM_j2zAy-26" value="(icono para volver al inicio)" style="text;html=1;align=center;verticalAlign=middle;whiteSpace=wrap;rounded=0;" vertex="1" parent="D2_aMS_M9CUxwM_j2zAy-1">
          <mxGeometry x="10" y="40" width="60" height="30" as="geometry" />
        </mxCell>
        <mxCell id="D2_aMS_M9CUxwM_j2zAy-55" value="INTRODUCCION (que es, como se juega)" style="rounded=1;whiteSpace=wrap;html=1;" vertex="1" parent="D2_aMS_M9CUxwM_j2zAy-1">
          <mxGeometry y="120" width="460" height="60" as="geometry" />
        </mxCell>
        <mxCell id="D2_aMS_M9CUxwM_j2zAy-69" value="" style="rounded=1;whiteSpace=wrap;html=1;strokeWidth=2;fillWeight=4;hachureGap=8;hachureAngle=45;fillColor=#fff2cc;sketch=1;strokeColor=#d6b656;" vertex="1" parent="D2_aMS_M9CUxwM_j2zAy-1">
          <mxGeometry x="294" y="190" width="120" height="60" as="geometry" />
        </mxCell>
        <mxCell id="D2_aMS_M9CUxwM_j2zAy-70" value="(imagen sobre instakill)" style="text;html=1;align=center;verticalAlign=middle;resizable=0;points=[];autosize=1;strokeColor=none;fillColor=none;" vertex="1" parent="D2_aMS_M9CUxwM_j2zAy-1">
          <mxGeometry x="279" y="205" width="150" height="30" as="geometry" />
        </mxCell>
        <mxCell id="D2_aMS_M9CUxwM_j2zAy-71" value="(imagen sobre instakill)" style="rounded=1;whiteSpace=wrap;html=1;strokeWidth=2;fillWeight=4;hachureGap=8;hachureAngle=45;fillColor=#fff2cc;sketch=1;strokeColor=#d6b656;" vertex="1" parent="D2_aMS_M9CUxwM_j2zAy-1">
          <mxGeometry x="30" y="350" width="130" height="60" as="geometry" />
        </mxCell>
        <mxCell id="D2_aMS_M9CUxwM_j2zAy-73" value="PARTICIPANTES ACTUALES (cogidos del json)" style="text;html=1;align=center;verticalAlign=middle;whiteSpace=wrap;rounded=0;" vertex="1" parent="D2_aMS_M9CUxwM_j2zAy-1">
          <mxGeometry x="165" y="631" width="110" height="30" as="geometry" />
        </mxCell>
        <mxCell id="D2_aMS_M9CUxwM_j2zAy-79" value="PREMIOS&lt;div&gt;(10 euros a los que sobrevivan hasta el ultimo día y 50 euros a los ganadores)&lt;/div&gt;" style="text;html=1;align=center;verticalAlign=middle;whiteSpace=wrap;rounded=0;" vertex="1" parent="D2_aMS_M9CUxwM_j2zAy-1">
          <mxGeometry x="30" y="203.75" width="180" height="32.5" as="geometry" />
        </mxCell>
        <mxCell id="D2_aMS_M9CUxwM_j2zAy-80" value="CARACTERISTICAS TECNICAS&lt;div&gt;parrafo sobre las caracteristicas tecnicas&lt;/div&gt;" style="text;html=1;align=center;verticalAlign=middle;whiteSpace=wrap;rounded=0;" vertex="1" parent="D2_aMS_M9CUxwM_j2zAy-1">
          <mxGeometry x="250" y="357.5" width="190" height="45" as="geometry" />
        </mxCell>
        <mxCell id="D2_aMS_M9CUxwM_j2zAy-83" value="(imagen sobre instakill)" style="rounded=1;whiteSpace=wrap;html=1;strokeWidth=2;fillWeight=4;hachureGap=8;hachureAngle=45;fillColor=#fff2cc;sketch=1;strokeColor=#d6b656;" vertex="1" parent="D2_aMS_M9CUxwM_j2zAy-1">
          <mxGeometry x="287" y="520" width="130" height="60" as="geometry" />
        </mxCell>
        <mxCell id="D2_aMS_M9CUxwM_j2zAy-84" value="INSCRIPCIONES&lt;div&gt;fecha limite, precio, reglas y normas en el menu desplegable, inscribir &lt;u&gt;aqui&lt;/u&gt; o a traves del menu desplegable&lt;/div&gt;" style="text;html=1;align=center;verticalAlign=middle;whiteSpace=wrap;rounded=0;" vertex="1" parent="D2_aMS_M9CUxwM_j2zAy-1">
          <mxGeometry x="25" y="527.5" width="190" height="45" as="geometry" />
        </mxCell>
        <mxCell id="D2_aMS_M9CUxwM_j2zAy-65" value="nombre real" style="swimlane;fontStyle=0;childLayout=stackLayout;horizontal=1;startSize=30;horizontalStack=0;resizeParent=1;resizeParentMax=0;resizeLast=0;collapsible=1;marginBottom=0;whiteSpace=wrap;html=1;" vertex="1" parent="D2_aMS_M9CUxwM_j2zAy-1">
          <mxGeometry x="150" y="670" width="150" height="120" as="geometry" />
        </mxCell>
        <mxCell id="D2_aMS_M9CUxwM_j2zAy-66" value="Sergio Díaz Pereira" style="text;strokeColor=none;fillColor=none;align=left;verticalAlign=middle;spacingLeft=4;spacingRight=4;overflow=hidden;points=[[0,0.5],[1,0.5]];portConstraint=eastwest;rotatable=0;whiteSpace=wrap;html=1;" vertex="1" parent="D2_aMS_M9CUxwM_j2zAy-65">
          <mxGeometry y="30" width="150" height="30" as="geometry" />
        </mxCell>
        <mxCell id="D2_aMS_M9CUxwM_j2zAy-67" value="Andrés Ballester Lozano" style="text;strokeColor=none;fillColor=none;align=left;verticalAlign=middle;spacingLeft=4;spacingRight=4;overflow=hidden;points=[[0,0.5],[1,0.5]];portConstraint=eastwest;rotatable=0;whiteSpace=wrap;html=1;" vertex="1" parent="D2_aMS_M9CUxwM_j2zAy-65">
          <mxGeometry y="60" width="150" height="30" as="geometry" />
        </mxCell>
        <mxCell id="D2_aMS_M9CUxwM_j2zAy-68" value="Guillermo Díaz&amp;nbsp;" style="text;strokeColor=none;fillColor=none;align=left;verticalAlign=middle;spacingLeft=4;spacingRight=4;overflow=hidden;points=[[0,0.5],[1,0.5]];portConstraint=eastwest;rotatable=0;whiteSpace=wrap;html=1;" vertex="1" parent="D2_aMS_M9CUxwM_j2zAy-65">
          <mxGeometry y="90" width="150" height="30" as="geometry" />
        </mxCell>
        <mxCell id="D2_aMS_M9CUxwM_j2zAy-74" value="rol" style="swimlane;fontStyle=0;childLayout=stackLayout;horizontal=1;startSize=30;horizontalStack=0;resizeParent=1;resizeParentMax=0;resizeLast=0;collapsible=1;marginBottom=0;whiteSpace=wrap;html=1;" vertex="1" parent="D2_aMS_M9CUxwM_j2zAy-1">
          <mxGeometry x="300" y="670" width="150" height="120" as="geometry" />
        </mxCell>
        <mxCell id="D2_aMS_M9CUxwM_j2zAy-75" value="administrador" style="text;strokeColor=none;fillColor=none;align=left;verticalAlign=middle;spacingLeft=4;spacingRight=4;overflow=hidden;points=[[0,0.5],[1,0.5]];portConstraint=eastwest;rotatable=0;whiteSpace=wrap;html=1;" vertex="1" parent="D2_aMS_M9CUxwM_j2zAy-74">
          <mxGeometry y="30" width="150" height="30" as="geometry" />
        </mxCell>
        <mxCell id="D2_aMS_M9CUxwM_j2zAy-76" value="miembro" style="text;strokeColor=none;fillColor=none;align=left;verticalAlign=middle;spacingLeft=4;spacingRight=4;overflow=hidden;points=[[0,0.5],[1,0.5]];portConstraint=eastwest;rotatable=0;whiteSpace=wrap;html=1;" vertex="1" parent="D2_aMS_M9CUxwM_j2zAy-74">
          <mxGeometry y="60" width="150" height="30" as="geometry" />
        </mxCell>
        <mxCell id="D2_aMS_M9CUxwM_j2zAy-77" value="VIP" style="text;strokeColor=none;fillColor=none;align=left;verticalAlign=middle;spacingLeft=4;spacingRight=4;overflow=hidden;points=[[0,0.5],[1,0.5]];portConstraint=eastwest;rotatable=0;whiteSpace=wrap;html=1;" vertex="1" parent="D2_aMS_M9CUxwM_j2zAy-74">
          <mxGeometry y="90" width="150" height="30" as="geometry" />
        </mxCell>
        <mxCell id="D2_aMS_M9CUxwM_j2zAy-61" value="nombre en el juego" style="swimlane;fontStyle=0;childLayout=stackLayout;horizontal=1;startSize=30;horizontalStack=0;resizeParent=1;resizeParentMax=0;resizeLast=0;collapsible=1;marginBottom=0;whiteSpace=wrap;html=1;" vertex="1" parent="D2_aMS_M9CUxwM_j2zAy-1">
          <mxGeometry x="10" y="670" width="140" height="120" as="geometry" />
        </mxCell>
        <mxCell id="D2_aMS_M9CUxwM_j2zAy-62" value="eyepro" style="text;strokeColor=none;fillColor=none;align=left;verticalAlign=middle;spacingLeft=4;spacingRight=4;overflow=hidden;points=[[0,0.5],[1,0.5]];portConstraint=eastwest;rotatable=0;whiteSpace=wrap;html=1;" vertex="1" parent="D2_aMS_M9CUxwM_j2zAy-61">
          <mxGeometry y="30" width="140" height="30" as="geometry" />
        </mxCell>
        <mxCell id="D2_aMS_M9CUxwM_j2zAy-63" value="andrip" style="text;strokeColor=none;fillColor=none;align=left;verticalAlign=middle;spacingLeft=4;spacingRight=4;overflow=hidden;points=[[0,0.5],[1,0.5]];portConstraint=eastwest;rotatable=0;whiteSpace=wrap;html=1;" vertex="1" parent="D2_aMS_M9CUxwM_j2zAy-61">
          <mxGeometry y="60" width="140" height="30" as="geometry" />
        </mxCell>
        <mxCell id="D2_aMS_M9CUxwM_j2zAy-64" value="willyrex" style="text;strokeColor=none;fillColor=none;align=left;verticalAlign=middle;spacingLeft=4;spacingRight=4;overflow=hidden;points=[[0,0.5],[1,0.5]];portConstraint=eastwest;rotatable=0;whiteSpace=wrap;html=1;" vertex="1" parent="D2_aMS_M9CUxwM_j2zAy-61">
          <mxGeometry y="90" width="140" height="30" as="geometry" />
        </mxCell>
        <mxCell id="D2_aMS_M9CUxwM_j2zAy-21" value="INSTAKILL 1" style="text;html=1;align=center;verticalAlign=middle;whiteSpace=wrap;rounded=0;fontSize=21;" vertex="1" parent="1">
          <mxGeometry x="630" y="230" width="60" height="30" as="geometry" />
        </mxCell>
        <mxCell id="D2_aMS_M9CUxwM_j2zAy-22" value="" style="shape=waypoint;sketch=0;fillStyle=solid;size=6;pointerEvents=1;points=[];fillColor=none;resizable=0;rotatable=0;perimeter=centerPerimeter;snapToPoint=1;" vertex="1" parent="1">
          <mxGeometry x="580" y="230" width="20" height="20" as="geometry" />
        </mxCell>
        <mxCell id="D2_aMS_M9CUxwM_j2zAy-23" value="" style="shape=waypoint;sketch=0;fillStyle=solid;size=6;pointerEvents=1;points=[];fillColor=none;resizable=0;rotatable=0;perimeter=centerPerimeter;snapToPoint=1;" vertex="1" parent="1">
          <mxGeometry x="580" y="310" width="20" height="20" as="geometry" />
        </mxCell>
        <mxCell id="D2_aMS_M9CUxwM_j2zAy-29" value="INSTAKILL 2" style="text;html=1;align=center;verticalAlign=middle;whiteSpace=wrap;rounded=0;fontSize=21;" vertex="1" parent="1">
          <mxGeometry x="605" y="275" width="110" height="90" as="geometry" />
        </mxCell>
        <mxCell id="D2_aMS_M9CUxwM_j2zAy-30" value="" style="endArrow=classic;html=1;rounded=0;" edge="1" parent="1">
          <mxGeometry width="50" height="50" relative="1" as="geometry">
            <mxPoint x="710" y="220" as="sourcePoint" />
            <mxPoint x="760" y="170" as="targetPoint" />
          </mxGeometry>
        </mxCell>
        <mxCell id="D2_aMS_M9CUxwM_j2zAy-31" value="· Episodio 1" style="text;html=1;align=center;verticalAlign=middle;resizable=0;points=[];autosize=1;strokeColor=none;fillColor=none;" vertex="1" parent="1">
          <mxGeometry x="760" y="90" width="90" height="30" as="geometry" />
        </mxCell>
        <mxCell id="D2_aMS_M9CUxwM_j2zAy-32" value="· Episodio 2" style="text;html=1;align=center;verticalAlign=middle;resizable=0;points=[];autosize=1;strokeColor=none;fillColor=none;" vertex="1" parent="1">
          <mxGeometry x="760" y="120" width="90" height="30" as="geometry" />
        </mxCell>
        <mxCell id="D2_aMS_M9CUxwM_j2zAy-33" value="· Episodio 3" style="text;html=1;align=center;verticalAlign=middle;resizable=0;points=[];autosize=1;strokeColor=none;fillColor=none;" vertex="1" parent="1">
          <mxGeometry x="760" y="150" width="90" height="30" as="geometry" />
        </mxCell>
        <mxCell id="D2_aMS_M9CUxwM_j2zAy-34" value="" style="endArrow=classic;html=1;rounded=0;" edge="1" parent="1">
          <mxGeometry width="50" height="50" relative="1" as="geometry">
            <mxPoint x="715" y="319.5" as="sourcePoint" />
            <mxPoint x="775" y="319.5" as="targetPoint" />
          </mxGeometry>
        </mxCell>
        <mxCell id="D2_aMS_M9CUxwM_j2zAy-35" value="· Pagina web" style="text;html=1;align=center;verticalAlign=middle;resizable=0;points=[];autosize=1;strokeColor=none;fillColor=none;" vertex="1" parent="1">
          <mxGeometry x="780" y="280" width="90" height="30" as="geometry" />
        </mxCell>
        <mxCell id="D2_aMS_M9CUxwM_j2zAy-38" value="· Participantes" style="text;html=1;align=center;verticalAlign=middle;resizable=0;points=[];autosize=1;strokeColor=none;fillColor=none;" vertex="1" parent="1">
          <mxGeometry x="780" y="310" width="100" height="30" as="geometry" />
        </mxCell>
        <mxCell id="D2_aMS_M9CUxwM_j2zAy-41" value="" style="shape=waypoint;sketch=0;fillStyle=solid;size=6;pointerEvents=1;points=[];fillColor=none;resizable=0;rotatable=0;perimeter=centerPerimeter;snapToPoint=1;" vertex="1" parent="1">
          <mxGeometry x="580" y="400" width="20" height="20" as="geometry" />
        </mxCell>
        <mxCell id="D2_aMS_M9CUxwM_j2zAy-43" value="INSCRIBETE YA" style="text;html=1;align=center;verticalAlign=middle;whiteSpace=wrap;rounded=0;fontSize=21;" vertex="1" parent="1">
          <mxGeometry x="605" y="365" width="110" height="90" as="geometry" />
        </mxCell>
        <mxCell id="D2_aMS_M9CUxwM_j2zAy-44" value="" style="shape=waypoint;sketch=0;fillStyle=solid;size=6;pointerEvents=1;points=[];fillColor=none;resizable=0;rotatable=0;perimeter=centerPerimeter;snapToPoint=1;" vertex="1" parent="1">
          <mxGeometry x="580" y="485" width="20" height="20" as="geometry" />
        </mxCell>
        <mxCell id="D2_aMS_M9CUxwM_j2zAy-45" value="REGLAS Y NORMAS" style="text;html=1;align=center;verticalAlign=middle;whiteSpace=wrap;rounded=0;fontSize=21;" vertex="1" parent="1">
          <mxGeometry x="605" y="450" width="110" height="90" as="geometry" />
        </mxCell>
        <mxCell id="D2_aMS_M9CUxwM_j2zAy-46" value="" style="endArrow=classic;html=1;rounded=0;" edge="1" parent="1">
          <mxGeometry width="50" height="50" relative="1" as="geometry">
            <mxPoint x="740" y="404.5" as="sourcePoint" />
            <mxPoint x="890" y="405" as="targetPoint" />
          </mxGeometry>
        </mxCell>
        <mxCell id="D2_aMS_M9CUxwM_j2zAy-48" value="&lt;span style=&quot;text-wrap-mode: nowrap;&quot;&gt;(web aparte) formulario que añade participantes al json&lt;/span&gt;" style="text;html=1;align=center;verticalAlign=middle;whiteSpace=wrap;rounded=0;" vertex="1" parent="1">
          <mxGeometry x="1000" y="390" width="85" height="30" as="geometry" />
        </mxCell>
        <mxCell id="D2_aMS_M9CUxwM_j2zAy-51" value="" style="endArrow=classic;html=1;rounded=0;" edge="1" parent="1">
          <mxGeometry width="50" height="50" relative="1" as="geometry">
            <mxPoint x="750" y="485" as="sourcePoint" />
            <mxPoint x="900" y="485.5" as="targetPoint" />
          </mxGeometry>
        </mxCell>
        <mxCell id="D2_aMS_M9CUxwM_j2zAy-52" style="edgeStyle=orthogonalEdgeStyle;rounded=0;orthogonalLoop=1;jettySize=auto;html=1;exitX=0.5;exitY=1;exitDx=0;exitDy=0;" edge="1" parent="1">
          <mxGeometry relative="1" as="geometry">
            <mxPoint x="1050" y="590" as="sourcePoint" />
            <mxPoint x="1050" y="590" as="targetPoint" />
          </mxGeometry>
        </mxCell>
        <mxCell id="D2_aMS_M9CUxwM_j2zAy-53" value="(descarga un pdf)" style="text;html=1;align=center;verticalAlign=middle;resizable=0;points=[];autosize=1;strokeColor=none;fillColor=none;" vertex="1" parent="1">
          <mxGeometry x="892" y="471" width="120" height="30" as="geometry" />
        </mxCell>
        <mxCell id="D2_aMS_M9CUxwM_j2zAy-81" value="· Imagenes" style="text;html=1;align=center;verticalAlign=middle;resizable=0;points=[];autosize=1;strokeColor=none;fillColor=none;" vertex="1" parent="1">
          <mxGeometry x="782" y="336" width="80" height="30" as="geometry" />
        </mxCell>
        <mxCell id="D2_aMS_M9CUxwM_j2zAy-82" value="· Cambios" style="text;html=1;align=center;verticalAlign=middle;resizable=0;points=[];autosize=1;strokeColor=none;fillColor=none;" vertex="1" parent="1">
          <mxGeometry x="779" y="363" width="80" height="30" as="geometry" />
        </mxCell>
        <mxCell id="D2_aMS_M9CUxwM_j2zAy-86" style="edgeStyle=orthogonalEdgeStyle;rounded=0;orthogonalLoop=1;jettySize=auto;html=1;exitX=0.5;exitY=0;exitDx=0;exitDy=0;entryX=1;entryY=0.5;entryDx=0;entryDy=0;entryPerimeter=0;endArrow=none;startFill=1;startArrow=classic;" edge="1" parent="1" source="D2_aMS_M9CUxwM_j2zAy-57" target="D2_aMS_M9CUxwM_j2zAy-10">
          <mxGeometry relative="1" as="geometry" />
        </mxCell>
      </root>
    </mxGraphModel>
  </diagram>
</mxfile>
